<svg xmlns="http://www.w3.org/2000/svg" viewBox="0 0 96 96" role="img" aria-label="Farmers Credits Union">
  <defs>
    <linearGradient id="leaf" x1="22" y1="12" x2="72" y2="80" gradientUnits="userSpaceOnUse">
      <stop offset="0" stop-color="#8cc63f"/>
      <stop offset="1" stop-color="#0f7f4f"/>
    </linearGradient>
    <linearGradient id="gold" x1="16" y1="74" x2="84" y2="34" gradientUnits="userSpaceOnUse">
      <stop offset="0" stop-color="#f4c542"/>
      <stop offset="1" stop-color="#d9911f"/>
    </linearGradient>
  </defs>
  <rect width="96" height="96" rx="20" fill="#f6fbf4"/>
  <circle cx="48" cy="48" r="38" fill="none" stroke="#0f7f4f" stroke-width="7"/>
  <path d="M48 17c13 15 21 30 21 44 0 15-8 25-21 25S27 76 27 61c0-14 8-29 21-44z" fill="url(#leaf)"/>
  <path d="M16 63c15-7 32-10 50-7 9 1 18 5 27 10-17 4-34 4-52 2-9-1-17-3-25-5z" fill="url(#gold)"/>
  <path d="M48 32v53" fill="none" stroke="#ffffff" stroke-width="5" stroke-linecap="round"/>
</svg>
